<svg width="12" height="12" viewBox="0 0 12 12" fill="none" xmlns="http://www.w3.org/2000/svg">
<path d="M11.5 5.5H10.5V4.5C10.5 4.36739 10.4473 4.24022 10.3536 4.14645C10.2598 4.05268 10.1326 4 10 4C9.86739 4 9.74021 4.05268 9.64645 4.14645C9.55268 4.24022 9.5 4.36739 9.5 4.5V5.5H8.5C8.36739 5.5 8.24021 5.55268 8.14645 5.64645C8.05268 5.74022 8 5.86739 8 6C8 6.13261 8.05268 6.25979 8.14645 6.35355C8.24021 6.44732 8.36739 6.5 8.5 6.5H9.5V7.5C9.5 7.63261 9.55268 7.75979 9.64645 7.85355C9.74021 7.94732 9.86739 8 10 8C10.1326 8 10.2598 7.94732 10.3536 7.85355C10.4473 7.75979 10.5 7.63261 10.5 7.5V6.5H11.5C11.6326 6.5 11.7598 6.44732 11.8536 6.35355C11.9473 6.25979 12 6.13261 12 6C12 5.86739 11.9473 5.74022 11.8536 5.64645C11.7598 5.55268 11.6326 5.5 11.5 5.5Z" fill="#FF0080"/>
<path d="M4.5 6C5.09334 6 5.67336 5.82405 6.16671 5.49441C6.66006 5.16477 7.04458 4.69623 7.27164 4.14805C7.4987 3.59987 7.55811 2.99667 7.44236 2.41473C7.3266 1.83279 7.04088 1.29824 6.62132 0.878681C6.20176 0.459123 5.66721 0.173401 5.08527 0.0576455C4.50333 -0.0581102 3.90013 0.00129986 3.35195 0.228363C2.80377 0.455426 2.33524 0.839943 2.00559 1.33329C1.67595 1.82664 1.5 2.40666 1.5 3C1.50079 3.79541 1.81712 4.55801 2.37956 5.12044C2.94199 5.68288 3.70459 5.99921 4.5 6ZM4.5 1C4.89556 1 5.28224 1.1173 5.61114 1.33706C5.94004 1.55682 6.19638 1.86918 6.34776 2.23463C6.49914 2.60009 6.53874 3.00222 6.46157 3.39018C6.3844 3.77814 6.19392 4.13451 5.91421 4.41422C5.63451 4.69392 5.27814 4.8844 4.89018 4.96157C4.50222 5.03874 4.10009 4.99914 3.73463 4.84776C3.36918 4.69639 3.05682 4.44004 2.83706 4.11114C2.6173 3.78224 2.5 3.39556 2.5 3C2.5 2.46957 2.71071 1.96086 3.08579 1.58579C3.46086 1.21072 3.96957 1 4.5 1Z" fill="#FF0080"/>
<path d="M4.5 7C3.30693 7.00132 2.16311 7.47586 1.31948 8.31948C0.475854 9.16311 0.00132343 10.3069 0 11.5C0 11.6326 0.0526784 11.7598 0.146447 11.8536C0.240215 11.9473 0.367392 12 0.5 12C0.632608 12 0.759785 11.9473 0.853553 11.8536C0.947322 11.7598 1 11.6326 1 11.5C1 10.5717 1.36875 9.68151 2.02513 9.02513C2.6815 8.36875 3.57174 8 4.5 8C5.42826 8 6.3185 8.36875 6.97487 9.02513C7.63125 9.68151 8 10.5717 8 11.5C8 11.6326 8.05268 11.7598 8.14645 11.8536C8.24021 11.9473 8.36739 12 8.5 12C8.63261 12 8.75979 11.9473 8.85355 11.8536C8.94732 11.7598 9 11.6326 9 11.5C8.99868 10.3069 8.52415 9.16311 7.68052 8.31948C6.83689 7.47586 5.69307 7.00132 4.5 7Z" fill="#FF0080"/>
</svg>
