<svg width="14" height="16" viewBox="0 0 14 16" fill="none" xmlns="http://www.w3.org/2000/svg">
<path d="M10.8727 8.50865C10.8887 7.26198 11.542 6.11065 12.604 5.45798C11.9314 4.49665 10.844 3.90931 9.67137 3.87265C8.43737 3.74331 7.24137 4.61065 6.6127 4.61065C5.97204 4.61065 5.00404 3.88531 3.96137 3.90665C2.59004 3.95131 1.34204 4.71198 0.674704 5.91131C-0.745963 8.37131 0.313371 11.9873 1.6747 13.976C2.35604 14.95 3.15137 16.0373 4.19337 15.9993C5.2127 15.9573 5.59337 15.3493 6.82337 15.3493C8.04204 15.3493 8.39937 15.9993 9.46204 15.9746C10.5554 15.9566 11.2447 14.9966 11.902 14.0133C12.3914 13.3193 12.768 12.5526 13.0174 11.7413C11.7187 11.192 10.874 9.91931 10.8727 8.50865Z" fill="#131313"/>
<path d="M8.86534 2.56467C9.46134 1.84867 9.75534 0.928667 9.68401 0C8.77334 0.096 7.93134 0.531333 7.32734 1.21933C6.73067 1.89867 6.42801 2.78667 6.48667 3.68933C7.41001 3.69867 8.28667 3.284 8.86534 2.56467Z" fill="#131313"/>
</svg>
