<svg width="14" height="16" viewBox="0 0 14 16" fill="none" xmlns="http://www.w3.org/2000/svg">
<path d="M10.8727 8.50877C10.8887 7.2621 11.542 6.11077 12.604 5.4581C11.9314 4.49677 10.844 3.90944 9.67137 3.87277C8.43737 3.74344 7.24137 4.61077 6.6127 4.61077C5.97204 4.61077 5.00404 3.88544 3.96137 3.90677C2.59004 3.95144 1.34204 4.7121 0.674704 5.91143C-0.745963 8.37144 0.313371 11.9874 1.6747 13.9761C2.35604 14.9501 3.15137 16.0374 4.19337 15.9994C5.2127 15.9574 5.59337 15.3494 6.82337 15.3494C8.04204 15.3494 8.39937 15.9994 9.46204 15.9748C10.5554 15.9568 11.2447 14.9968 11.902 14.0134C12.3914 13.3194 12.768 12.5528 13.0174 11.7414C11.7187 11.1921 10.874 9.91944 10.8727 8.50877Z" fill="white"/>
<path d="M8.86537 2.56467C9.46137 1.84867 9.75537 0.928667 9.68404 0C8.77337 0.096 7.93137 0.531333 7.32737 1.21933C6.7307 1.89867 6.42804 2.78667 6.4867 3.68933C7.41004 3.69867 8.2867 3.284 8.86537 2.56467Z" fill="white"/>
</svg>
