<svg width="9" height="18" viewBox="0 0 9 18" fill="none" xmlns="http://www.w3.org/2000/svg">
<path d="M7.7617 18C7.663 18.0006 7.56515 17.9816 7.47377 17.9443C7.38239 17.907 7.29928 17.852 7.2292 17.7825L1.1017 11.655C0.752479 11.3066 0.475408 10.8928 0.286359 10.4372C0.0973111 9.98165 0 9.49324 0 8.99999C0 8.50673 0.0973111 8.01832 0.286359 7.56273C0.475408 7.10715 0.752479 6.69333 1.1017 6.34499L7.2292 0.217486C7.29913 0.147558 7.38215 0.0920869 7.47352 0.0542417C7.56488 0.0163964 7.66281 -0.00308227 7.7617 -0.00308228C7.8606 -0.00308228 7.95852 0.0163964 8.04989 0.0542417C8.14126 0.0920869 8.22427 0.147558 8.2942 0.217486C8.36413 0.287415 8.4196 0.370433 8.45745 0.4618C8.49529 0.553166 8.51477 0.651092 8.51477 0.749986C8.51477 0.848881 8.49529 0.946807 8.45745 1.03817C8.4196 1.12954 8.36413 1.21256 8.2942 1.28249L2.1667 7.40999C1.74535 7.83186 1.50868 8.40373 1.50868 8.99999C1.50868 9.59624 1.74535 10.1681 2.1667 10.59L8.2942 16.7175C8.3645 16.7872 8.4203 16.8702 8.45837 16.9616C8.49645 17.0529 8.51605 17.151 8.51605 17.25C8.51605 17.349 8.49645 17.447 8.45837 17.5384C8.4203 17.6298 8.3645 17.7128 8.2942 17.7825C8.22412 17.852 8.14101 17.907 8.04963 17.9443C7.95826 17.9816 7.86041 18.0006 7.7617 18Z" fill="#A3A1A5"/>
</svg>
