<svg width="24" height="24" viewBox="0 0 24 24" fill="none" xmlns="http://www.w3.org/2000/svg">
<path d="M22.536 6.464C21.832 5.76 20.955 5.294 20 5.101V3C20 1.346 18.654 0 17 0C15.346 0 14 1.346 14 3V5H10V3C10 1.346 8.654 0 7 0C5.346 0 4 1.346 4 3V5.101C3.046 5.294 2.168 5.76 1.464 6.464C0.52 7.408 0 8.664 0 10V18.5C0 21.533 2.467 24 5.5 24C8.479 24 10.906 21.618 10.992 18.66C10.992 18.646 11 18.634 11 18.62V13C11 12.449 11.449 12 12 12C12.551 12 13 12.449 13 13V18.62C13 18.634 13.008 18.646 13.008 18.66C13.094 21.618 15.521 24 18.5 24C21.533 24 24 21.533 24 18.5V10C24 8.665 23.48 7.409 22.536 6.464ZM16 3C16 2.449 16.449 2 17 2C17.551 2 18 2.449 18 3V5H16V3ZM7 2C7.551 2 8 2.449 8 3V5H6V3C6 2.449 6.449 2 7 2ZM5.5 22C3.57 22 2 20.43 2 18.5C2 16.57 3.57 15 5.5 15C7.43 15 9 16.57 9 18.5C9 20.43 7.43 22 5.5 22ZM12 10C10.346 10 9 11.346 9 13V14.261C8.048 13.474 6.828 13 5.5 13C4.172 13 2.952 13.474 2 14.261V10C2 9.199 2.312 8.445 2.879 7.879C3.445 7.313 4.198 7.001 5 7.001H19.001C19.802 7.001 20.555 7.313 21.122 7.879C21.689 8.445 22 9.199 22 10V14.261C21.048 13.474 19.828 13 18.5 13C17.172 13 15.952 13.474 15 14.261V13C15 11.346 13.654 10 12 10ZM18.5 22C16.57 22 15 20.43 15 18.5C15 16.57 16.57 15 18.5 15C20.43 15 22 16.57 22 18.5C22 20.43 20.43 22 18.5 22Z" fill="#B1B0B1"/>
</svg>
