<svg width="12" height="12" viewBox="0 0 12 12" fill="none" xmlns="http://www.w3.org/2000/svg">
<path d="M9.5 2H9.246L8.154 0.584C8.01326 0.402903 7.83316 0.256208 7.62733 0.155027C7.42151 0.0538457 7.19535 0.000831522 6.966 0H5.034C4.80465 0.000831522 4.57849 0.0538457 4.37267 0.155027C4.16684 0.256208 3.98674 0.402903 3.846 0.584L2.754 2H2.5C1.8372 2.00079 1.20178 2.26444 0.73311 2.73311C0.264441 3.20178 0.000793929 3.8372 0 4.5V9.5C0.000793929 10.1628 0.264441 10.7982 0.73311 11.2669C1.20178 11.7356 1.8372 11.9992 2.5 12H9.5C10.1628 11.9992 10.7982 11.7356 11.2669 11.2669C11.7356 10.7982 11.9992 10.1628 12 9.5V4.5C11.9992 3.8372 11.7356 3.20178 11.2669 2.73311C10.7982 2.26444 10.1628 2.00079 9.5 2ZM4.638 1.195C4.68484 1.13453 4.74485 1.08553 4.81347 1.05174C4.88209 1.01795 4.95751 1.00025 5.034 1H6.966C7.04248 1.00033 7.11787 1.01806 7.18648 1.05184C7.25509 1.08563 7.31511 1.13458 7.362 1.195L7.983 2H4.017L4.638 1.195ZM11 9.5C11 9.89782 10.842 10.2794 10.5607 10.5607C10.2794 10.842 9.89782 11 9.5 11H2.5C2.10218 11 1.72064 10.842 1.43934 10.5607C1.15804 10.2794 1 9.89782 1 9.5V4.5C1 4.10218 1.15804 3.72064 1.43934 3.43934C1.72064 3.15804 2.10218 3 2.5 3H9.5C9.89782 3 10.2794 3.15804 10.5607 3.43934C10.842 3.72064 11 4.10218 11 4.5V9.5Z" fill="white"/>
<path d="M6 4C5.40666 4 4.82664 4.17595 4.33329 4.50559C3.83994 4.83524 3.45542 5.30377 3.22836 5.85195C3.0013 6.40013 2.94189 7.00333 3.05764 7.58527C3.1734 8.16721 3.45912 8.70176 3.87868 9.12132C4.29824 9.54088 4.83279 9.8266 5.41473 9.94236C5.99667 10.0581 6.59987 9.9987 7.14805 9.77164C7.69623 9.54458 8.16476 9.16006 8.49441 8.66671C8.82405 8.17336 9 7.59334 9 7C8.99921 6.20459 8.68288 5.44199 8.12044 4.87956C7.55801 4.31712 6.79541 4.00079 6 4ZM6 9C5.60444 9 5.21776 8.8827 4.88886 8.66294C4.55996 8.44318 4.30362 8.13082 4.15224 7.76537C4.00087 7.39991 3.96126 6.99778 4.03843 6.60982C4.1156 6.22186 4.30608 5.86549 4.58579 5.58579C4.86549 5.30608 5.22186 5.1156 5.60982 5.03843C5.99778 4.96126 6.39991 5.00087 6.76537 5.15224C7.13082 5.30362 7.44318 5.55996 7.66294 5.88886C7.8827 6.21776 8 6.60444 8 7C8 7.53043 7.78929 8.03914 7.41421 8.41421C7.03914 8.78929 6.53043 9 6 9Z" fill="white"/>
</svg>
