<svg width="16" height="16" viewBox="0 0 16 16" fill="none" xmlns="http://www.w3.org/2000/svg">
<path d="M7.43317 0.0191813C9.7465 -0.140819 12.0198 0.705848 13.6598 2.34585C15.2932 3.97918 16.1398 6.25251 15.9798 8.56585C15.6932 12.7325 12.0865 15.9992 7.77317 15.9992H3.33317C1.37317 15.9992 -0.000163078 14.3992 -0.000163078 12.0992V8.21918C-0.000163078 3.91251 3.2665 0.305848 7.43317 0.0191813ZM1.33317 12.0992C1.33317 13.6325 2.13984 14.6658 3.33317 14.6658H7.77317C11.3865 14.6658 14.4065 11.9458 14.6465 8.47918C14.7798 6.54585 14.0732 4.65251 12.7132 3.28585C11.4598 2.03251 9.75984 1.33251 7.9865 1.33251C7.83317 1.33251 7.67317 1.33251 7.51984 1.34585C4.0465 1.58585 1.33317 4.60585 1.33317 8.21918V12.0992Z" fill="#B1B0B1"/>
</svg>
