<svg width="20" height="20" viewBox="0 0 20 20" fill="none" xmlns="http://www.w3.org/2000/svg">
<path d="M9.29171 0.0239766C12.1834 -0.176023 15.025 0.88231 17.075 2.93231C19.1167 4.97398 20.175 7.81564 19.975 10.7073C19.6167 15.9156 15.1084 19.999 9.71671 19.999H4.16671C1.71671 19.999 3.94186e-05 17.999 3.94186e-05 15.124V10.274C3.94186e-05 4.89064 4.08337 0.38231 9.29171 0.0239766ZM1.66671 15.124C1.66671 17.0406 2.67504 18.3323 4.16671 18.3323H9.71671C14.2334 18.3323 18.0084 14.9323 18.3084 10.599C18.475 8.18231 17.5917 5.81564 15.8917 4.10731C14.325 2.54064 12.2 1.66564 9.98337 1.66564C9.79171 1.66564 9.59171 1.66564 9.40004 1.68231C5.05837 1.98231 1.66671 5.75731 1.66671 10.274V15.124Z" fill="#C084FC"/>
</svg>
