<svg width="20" height="20" viewBox="0 0 20 20" fill="none" xmlns="http://www.w3.org/2000/svg">
<path d="M0.646809 4.78583L3.15598 1.39583C3.46454 0.964446 3.87147 0.612808 4.34305 0.370064C4.81462 0.12732 5.33726 0.000461434 5.86764 1.46866e-06H14.126C14.6538 -0.000493946 15.1742 0.124354 15.6443 0.364271C16.1144 0.604187 16.5208 0.952314 16.8301 1.38L19.3843 4.79417C19.8002 5.38058 20.0149 6.0859 19.9965 6.80456C19.978 7.52322 19.7273 8.21657 19.2818 8.78083L11.9551 19.0542C11.7217 19.3498 11.4241 19.5886 11.0848 19.7524C10.7456 19.9163 10.3735 20.0009 9.99681 20C9.61361 19.9992 9.23569 19.9106 8.89214 19.7408C8.54858 19.5711 8.24855 19.3247 8.01514 19.0208L0.746808 8.86167C0.281411 8.28915 0.019111 7.57841 0.00101439 6.84082C-0.0170823 6.10323 0.210048 5.38048 0.646809 4.78583ZM4.50348 2.37583L1.98847 5.77417C1.97514 5.7925 1.97181 5.81417 1.95848 5.83333H6.03514L7.22514 1.66667H5.86764C5.60018 1.6675 5.33679 1.7323 5.09948 1.85567C4.86217 1.97904 4.65781 2.15739 4.50348 2.37583ZM9.99681 15.9317L12.2468 7.5H7.74681L9.99681 15.9317ZM12.2251 5.83333L11.0351 1.66667H8.95847L7.76847 5.83333H12.2251ZM15.4826 2.36417C15.328 2.14866 15.1244 1.97302 14.8885 1.85174C14.6526 1.73046 14.3912 1.66702 14.126 1.66667H12.7685L13.9585 5.83333H18.0651C18.0535 5.815 18.0501 5.7925 18.0368 5.775L15.4826 2.36417ZM17.9568 7.77083C18.017 7.68585 18.0686 7.59513 18.111 7.5H13.9701L11.4751 16.8583L17.9568 7.77083ZM8.52097 16.8667L6.02097 7.5H1.86598C1.91967 7.62439 1.98762 7.74212 2.06848 7.85083L8.52097 16.8667Z" fill="#22D3EE"/>
</svg>
