<svg width="16" height="13" viewBox="0 0 16 13" fill="none" xmlns="http://www.w3.org/2000/svg">
<path d="M15.514 4.50933C14.48 2.82533 12.128 0 8.00003 0C3.87203 0 1.52003 2.82533 0.486034 4.50933C0.166386 5.02634 -0.00292969 5.62216 -0.00292969 6.23C-0.00292969 6.83784 0.166386 7.43366 0.486034 7.95067C1.52003 9.63467 3.87203 12.46 8.00003 12.46C12.128 12.46 14.48 9.63467 15.514 7.95067C15.8337 7.43366 16.003 6.83784 16.003 6.23C16.003 5.62216 15.8337 5.02634 15.514 4.50933ZM14.3774 7.25267C13.4894 8.69667 11.4794 11.1267 8.00003 11.1267C4.5207 11.1267 2.5107 8.69667 1.6227 7.25267C1.43279 6.94536 1.3322 6.59125 1.3322 6.23C1.3322 5.86875 1.43279 5.51464 1.6227 5.20733C2.5107 3.76333 4.5207 1.33333 8.00003 1.33333C11.4794 1.33333 13.4894 3.76067 14.3774 5.20733C14.5673 5.51464 14.6679 5.86875 14.6679 6.23C14.6679 6.59125 14.5673 6.94536 14.3774 7.25267Z" fill="white"/>
<path d="M8.00003 2.89667C7.34076 2.89667 6.6963 3.09216 6.14813 3.45843C5.59997 3.82471 5.17273 4.3453 4.92044 4.95439C4.66814 5.56348 4.60213 6.2337 4.73075 6.8803C4.85937 7.52691 5.17684 8.12085 5.64301 8.58702C6.10919 9.0532 6.70313 9.37067 7.34973 9.49929C7.99634 9.6279 8.66656 9.56189 9.27565 9.3096C9.88473 9.05731 10.4053 8.63007 10.7716 8.0819C11.1379 7.53374 11.3334 6.88927 11.3334 6.23C11.3323 5.34627 10.9808 4.49904 10.3559 3.87415C9.731 3.24925 8.88376 2.89773 8.00003 2.89667ZM8.00003 8.23C7.60447 8.23 7.21779 8.1127 6.88889 7.89294C6.56 7.67318 6.30365 7.36082 6.15228 6.99537C6.0009 6.62992 5.96129 6.22778 6.03846 5.83982C6.11563 5.45186 6.30612 5.09549 6.58582 4.81579C6.86553 4.53608 7.22189 4.3456 7.60985 4.26843C7.99782 4.19126 8.39995 4.23087 8.7654 4.38224C9.13085 4.53362 9.44321 4.78996 9.66297 5.11886C9.88274 5.44776 10 5.83444 10 6.23C10 6.76043 9.78932 7.26914 9.41425 7.64421C9.03918 8.01929 8.53047 8.23 8.00003 8.23Z" fill="white"/>
</svg>
