<svg width="12" height="12" viewBox="0 0 12 12" fill="none" xmlns="http://www.w3.org/2000/svg">
<g clip-path="url(#clip0_43_1235)">
<path d="M8.3565 6.902C8.5485 7.0985 8.547 7.412 8.352 7.605C8.315 7.6415 7.432 8.5 6 8.5C4.568 8.5 3.685 7.642 3.648 7.605C3.452 7.4105 3.45 7.0945 3.6445 6.898C3.8395 6.702 4.155 6.7 4.352 6.8945C4.375 6.917 4.992 7.4995 6 7.4995C7.008 7.4995 7.625 6.9165 7.651 6.892C7.849 6.701 8.165 6.705 8.3565 6.902ZM4.25 5.5C4.664 5.5 5 5.164 5 4.75C5 4.336 4.664 4 4.25 4C3.836 4 3.5 4.336 3.5 4.75C3.5 5.164 3.836 5.5 4.25 5.5ZM7.75 4C7.336 4 7 4.336 7 4.75C7 5.164 7.336 5.5 7.75 5.5C8.164 5.5 8.5 5.164 8.5 4.75C8.5 4.336 8.164 4 7.75 4Z" fill="#4C6EF5"/>
<path d="M3.5 11H2.5C1.673 11 1 10.327 1 9.5V8.5C1 8.224 0.776 8 0.5 8C0.224 8 0 8.224 0 8.5V9.5C0 10.8785 1.1215 12 2.5 12H3.5C3.776 12 4 11.776 4 11.5C4 11.224 3.776 11 3.5 11ZM11.5 8C11.224 8 11 8.224 11 8.5V9.5C11 10.327 10.327 11 9.5 11H8.5C8.224 11 8 11.224 8 11.5C8 11.776 8.224 12 8.5 12H9.5C10.8785 12 12 10.8785 12 9.5V8.5C12 8.224 11.776 8 11.5 8ZM9.5 0H8.5C8.224 0 8 0.224 8 0.5C8 0.776 8.224 1 8.5 1H9.5C10.327 1 11 1.673 11 2.5V3.5C11 3.776 11.224 4 11.5 4C11.776 4 12 3.776 12 3.5V2.5C12 1.1215 10.8785 0 9.5 0ZM0.5 4C0.776 4 1 3.776 1 3.5V2.5C1 1.673 1.673 1 2.5 1H3.5C3.776 1 4 0.776 4 0.5C4 0.224 3.776 0 3.5 0H2.5C1.1215 0 0 1.1215 0 2.5V3.5C0 3.776 0.224 4 0.5 4Z" fill="#4C6EF5"/>
<g clip-path="url(#clip1_43_1235)">
<path d="M3.5 11H2.5C1.673 11 1 10.327 1 9.5V8.5C1 8.224 0.776 8 0.5 8C0.224 8 0 8.224 0 8.5V9.5C0 10.8785 1.1215 12 2.5 12H3.5C3.776 12 4 11.776 4 11.5C4 11.224 3.776 11 3.5 11ZM11.5 8C11.224 8 11 8.224 11 8.5V9.5C11 10.327 10.327 11 9.5 11H8.5C8.224 11 8 11.224 8 11.5C8 11.776 8.224 12 8.5 12H9.5C10.8785 12 12 10.8785 12 9.5V8.5C12 8.224 11.776 8 11.5 8ZM9.5 0H8.5C8.224 0 8 0.224 8 0.5C8 0.776 8.224 1 8.5 1H9.5C10.327 1 11 1.673 11 2.5V3.5C11 3.776 11.224 4 11.5 4C11.776 4 12 3.776 12 3.5V2.5C12 1.1215 10.8785 0 9.5 0ZM0.5 4C0.776 4 1 3.776 1 3.5V2.5C1 1.673 1.673 1 2.5 1H3.5C3.776 1 4 0.776 4 0.5C4 0.224 3.776 0 3.5 0H2.5C1.1215 0 0 1.1215 0 2.5V3.5C0 3.776 0.224 4 0.5 4Z" fill="#4C6EF5"/>
</g>
</g>
<defs>
<clipPath id="clip0_43_1235">
<rect width="12" height="12" fill="white"/>
</clipPath>
<clipPath id="clip1_43_1235">
<rect width="12" height="12" fill="white"/>
</clipPath>
</defs>
</svg>
