<svg width="29" height="33" viewBox="0 0 29 33" fill="none" xmlns="http://www.w3.org/2000/svg">
<g clip-path="url(#clip0_43_1343)" filter="url(#filter0_dddd_43_1343)">
<path d="M4.51926 14.3369C4.87426 13.9128 5.41093 13.6903 5.9576 13.7403C9.6851 14.0878 11.9651 16.0778 13.2984 17.8894V15.2461C12.3309 14.9011 11.6318 13.9844 11.6318 12.8994V12.8803C11.6259 12.8836 11.6201 12.8869 11.6143 12.8894C10.3959 13.5328 8.8801 13.0644 8.23593 11.8461C7.66926 10.7728 7.96426 9.46943 8.87593 8.7336C8.49093 8.42443 8.20676 8.00777 8.0576 7.52527C7.86093 6.88693 7.92343 6.21027 8.23593 5.62027C8.87843 4.4011 10.3951 3.93277 11.6143 4.57693C11.6201 4.57943 11.6251 4.58277 11.6309 4.58527V4.5661C11.6309 3.18777 12.7526 2.0661 14.1309 2.0661C15.5093 2.0661 16.6309 3.18777 16.6309 4.5661V4.58527C16.6368 4.58193 16.6426 4.5786 16.6484 4.5761C17.8684 3.9311 19.3834 4.4011 20.0268 5.61943C20.3384 6.20943 20.4018 6.8861 20.2043 7.52443C20.0551 8.00693 19.7709 8.4236 19.3868 8.73277C20.2984 9.4686 20.5934 10.7719 20.0268 11.8453C19.3834 13.0644 17.8676 13.5328 16.6484 12.8886C16.6426 12.8861 16.6376 12.8828 16.6318 12.8803V12.8994C16.6318 13.9844 15.9326 14.9011 14.9651 15.2461V17.8894C16.2984 16.0786 18.5776 14.0886 22.3059 13.7403C22.8526 13.6869 23.3901 13.9128 23.7443 14.3369C24.0934 14.7544 24.2159 15.3128 24.0726 15.8303C22.3734 21.9453 14.4726 22.0644 14.1376 22.0661H14.1268C13.7918 22.0644 5.89093 21.9453 4.19176 15.8303C4.0476 15.3128 4.1701 14.7544 4.51926 14.3369ZM10.8368 6.05027C10.4301 5.83693 9.9251 5.99193 9.7101 6.3986C9.60593 6.59527 9.58509 6.82027 9.65093 7.0336C9.71676 7.2461 9.86093 7.42027 10.0576 7.52443C10.0818 7.53693 10.3109 7.64527 11.3434 7.87527C11.4526 7.52277 11.6259 7.1986 11.8509 6.9161C11.1009 6.21193 10.8784 6.07277 10.8368 6.05027ZM11.3443 9.59193C10.3101 9.82193 10.0809 9.93027 10.0584 9.94193C9.65176 10.1561 9.49593 10.6619 9.71093 11.0686C9.9251 11.4753 10.4293 11.6311 10.8359 11.4169C10.8784 11.3944 11.1026 11.2544 11.8526 10.5511C11.6268 10.2694 11.4534 9.94443 11.3443 9.59193ZM18.5534 6.39777C18.4043 6.11527 18.1143 5.9536 17.8143 5.9536C17.6834 5.9536 17.5518 5.98443 17.4284 6.04943C17.3859 6.07193 17.1626 6.2111 16.4126 6.9161C16.6376 7.19777 16.8118 7.52277 16.9201 7.87527C17.9526 7.64527 18.1818 7.5361 18.2059 7.52443C18.6118 7.31027 18.7676 6.80443 18.5534 6.39777ZM17.4268 11.4153C17.8326 11.6294 18.3384 11.4736 18.5534 11.0678C18.7684 10.6619 18.6118 10.1561 18.2068 9.94193C18.1834 9.92943 17.9534 9.8211 16.9201 9.59193C16.8118 9.94443 16.6376 10.2686 16.4118 10.5511C17.1626 11.2544 17.3859 11.3936 17.4276 11.4161L17.4268 11.4153ZM14.1318 13.7328C14.5909 13.7328 14.9651 13.3586 14.9651 12.8994C14.9651 12.8511 14.9459 12.5886 14.6751 11.5978C14.3234 11.6644 13.9418 11.6644 13.5893 11.5978C13.3176 12.5886 13.2984 12.8503 13.2984 12.8986C13.2984 13.3578 13.6726 13.7319 14.1318 13.7319V13.7328ZM14.1318 3.73277C13.6726 3.73277 13.2984 4.10693 13.2984 4.5661C13.2984 4.61443 13.3176 4.8761 13.5893 5.86693C13.9409 5.8011 14.3234 5.80027 14.6751 5.86693C14.9459 4.8761 14.9651 4.61443 14.9651 4.5661C14.9651 4.10693 14.5909 3.73277 14.1318 3.73277ZM15.3818 8.73277C15.3818 8.0436 14.8209 7.48277 14.1318 7.48277C13.4426 7.48277 12.8818 8.0436 12.8818 8.73277C12.8818 9.42193 13.4426 9.98277 14.1318 9.98277C14.8209 9.98277 15.3818 9.42193 15.3818 8.73277ZM22.4601 15.3994C18.2268 15.7944 16.2243 18.6353 15.4084 20.2853C17.4893 19.9961 21.4668 18.9786 22.4601 15.3994ZM12.8443 20.2836C12.0159 18.6344 9.9951 15.7861 5.79676 15.3836C6.7926 18.9678 10.7601 19.9919 12.8443 20.2836Z" fill="#F472B6"/>
</g>
<defs>
<filter id="filter0_dddd_43_1343" x="-0.000394821" y="-1.43051e-05" width="28.2645" height="34.4628" filterUnits="userSpaceOnUse" color-interpolation-filters="sRGB">
<feFlood flood-opacity="0" result="BackgroundImageFix"/>
<feColorMatrix in="SourceAlpha" type="matrix" values="0 0 0 0 0 0 0 0 0 0 0 0 0 0 0 0 0 0 127 0" result="hardAlpha"/>
<feOffset/>
<feGaussianBlur stdDeviation="1.03306"/>
<feColorMatrix type="matrix" values="0 0 0 0 0.0901961 0 0 0 0 0.0784314 0 0 0 0 0.960784 0 0 0 0.1 0"/>
<feBlend mode="normal" in2="BackgroundImageFix" result="effect1_dropShadow_43_1343"/>
<feColorMatrix in="SourceAlpha" type="matrix" values="0 0 0 0 0 0 0 0 0 0 0 0 0 0 0 0 0 0 127 0" result="hardAlpha"/>
<feOffset dy="2.06612"/>
<feGaussianBlur stdDeviation="1.03306"/>
<feColorMatrix type="matrix" values="0 0 0 0 0.0901961 0 0 0 0 0.0784314 0 0 0 0 0.960784 0 0 0 0.09 0"/>
<feBlend mode="normal" in2="effect1_dropShadow_43_1343" result="effect2_dropShadow_43_1343"/>
<feColorMatrix in="SourceAlpha" type="matrix" values="0 0 0 0 0 0 0 0 0 0 0 0 0 0 0 0 0 0 127 0" result="hardAlpha"/>
<feOffset dy="4.13223"/>
<feGaussianBlur stdDeviation="1.03306"/>
<feColorMatrix type="matrix" values="0 0 0 0 0.0901961 0 0 0 0 0.0784314 0 0 0 0 0.960784 0 0 0 0.05 0"/>
<feBlend mode="normal" in2="effect2_dropShadow_43_1343" result="effect3_dropShadow_43_1343"/>
<feColorMatrix in="SourceAlpha" type="matrix" values="0 0 0 0 0 0 0 0 0 0 0 0 0 0 0 0 0 0 127 0" result="hardAlpha"/>
<feOffset dy="8.26446"/>
<feGaussianBlur stdDeviation="2.06612"/>
<feColorMatrix type="matrix" values="0 0 0 0 0.0901961 0 0 0 0 0.0784314 0 0 0 0 0.960784 0 0 0 0.01 0"/>
<feBlend mode="normal" in2="effect3_dropShadow_43_1343" result="effect4_dropShadow_43_1343"/>
<feBlend mode="normal" in="SourceGraphic" in2="effect4_dropShadow_43_1343" result="shape"/>
</filter>
<clipPath id="clip0_43_1343">
<rect width="20" height="20" fill="white" transform="matrix(-1 0 0 1 24.1318 2.0661)"/>
</clipPath>
</defs>
</svg>
