<svg width="16" height="16" viewBox="0 0 16 16" fill="none" xmlns="http://www.w3.org/2000/svg">
<path d="M4.05267 15C4.05291 14.7348 4.15842 14.4807 4.34601 14.2933L9.46067 9.17864C9.61548 9.02387 9.73829 8.84012 9.82208 8.63788C9.90586 8.43564 9.94898 8.21888 9.94898 7.99997C9.94898 7.78106 9.90586 7.5643 9.82208 7.36206C9.73829 7.15983 9.61548 6.97607 9.46067 6.8213L4.35267 1.70997C4.17052 1.52137 4.06972 1.26877 4.072 1.00657C4.07428 0.744373 4.17945 0.49356 4.36485 0.308152C4.55026 0.122744 4.80108 0.017575 5.06327 0.0152966C5.32547 0.0130182 5.57807 0.113813 5.76667 0.295971L10.8747 5.4033C11.5615 6.09148 11.9472 7.02403 11.9472 7.9963C11.9472 8.96858 11.5615 9.90113 10.8747 10.5893L5.76001 15.704C5.62035 15.8437 5.44244 15.939 5.2487 15.9777C5.05497 16.0164 4.85411 15.9969 4.67147 15.9216C4.48882 15.8463 4.33257 15.7185 4.22245 15.5545C4.11232 15.3905 4.05324 15.1975 4.05267 15Z" fill="#030104"/>
</svg>
