<svg width="43" height="30" viewBox="0 0 43 30" fill="none" xmlns="http://www.w3.org/2000/svg">
<path d="M33.6179 8.78367C38.38 8.78392 42.2409 12.6445 42.2409 17.4066V21.297C42.2406 26.059 38.3799 29.9198 33.6179 29.92H18.3193C13.8755 29.92 10.2191 26.5578 9.74961 22.2389C10.3465 22.5834 11.0406 22.7828 11.782 22.7829C12.3283 22.7828 12.8495 22.6746 13.3246 22.4804C13.4769 24.4918 15.156 26.0769 17.2064 26.0769H34.4523C36.6027 26.0766 38.3458 24.3334 38.3462 22.183V16.5206C38.346 14.3701 36.6028 12.627 34.4523 12.6268H17.2064C15.5131 12.6268 14.0724 13.7076 13.536 15.217C13.0059 14.964 12.4103 14.8226 11.782 14.8225C11.1301 14.8225 10.5146 14.9768 9.96961 15.2479C10.928 11.5304 14.3025 8.78367 18.3193 8.78367H33.6179Z" fill="white"/>
<path d="M23.9224 0C27.939 0.000195881 31.3138 2.74683 32.2721 6.46422C31.7272 6.19308 31.1116 6.03893 30.4597 6.03883C29.8313 6.03883 29.2359 6.18034 28.7057 6.43328C28.1693 4.92408 26.7285 3.84331 25.0353 3.84312H7.78937C5.6387 3.84312 3.89565 5.5863 3.89555 7.73695V13.3985C3.89575 15.5491 5.63876 17.2932 7.78937 17.2932H25.0353C27.0854 17.293 28.7646 15.7078 28.9171 13.6967C29.3922 13.8909 29.9134 13.9992 30.4597 13.9992C31.2014 13.9991 31.8959 13.8001 32.493 13.4552C32.0235 17.774 28.3661 21.1361 23.9224 21.1363H8.62383C3.86169 21.1363 0.000315015 17.2754 0 12.5134V8.62297C8.20566e-06 3.86064 3.8615 1.21892e-05 8.62383 0H23.9224Z" fill="white"/>
</svg>
