<svg width="50" height="46" viewBox="0 0 50 46" fill="none" xmlns="http://www.w3.org/2000/svg">
<path d="M39.5833 0H10.4167C7.65501 0.00330804 5.00741 1.10184 3.05462 3.05462C1.10184 5.00741 0.00330804 7.65501 0 10.4167L0 35.4167C0.00330804 38.1783 1.10184 40.8259 3.05462 42.7787C5.00741 44.7315 7.65501 45.83 10.4167 45.8333H39.5833C42.345 45.83 44.9926 44.7315 46.9454 42.7787C48.8982 40.8259 49.9967 38.1783 50 35.4167V10.4167C49.9967 7.65501 48.8982 5.00741 46.9454 3.05462C44.9926 1.10184 42.345 0.00330804 39.5833 0ZM10.4167 4.16667H39.5833C40.8308 4.16912 42.049 4.54482 43.0812 5.24542C44.1133 5.94603 44.9122 6.93947 45.375 8.09792L29.4208 24.0542C28.2467 25.2236 26.6571 25.8801 25 25.8801C23.3429 25.8801 21.7533 25.2236 20.5792 24.0542L4.625 8.09792C5.08781 6.93947 5.88669 5.94603 6.91885 5.24542C7.951 4.54482 9.1692 4.16912 10.4167 4.16667ZM39.5833 41.6667H10.4167C8.75906 41.6667 7.16935 41.0082 5.99725 39.8361C4.82515 38.664 4.16667 37.0743 4.16667 35.4167V13.5417L17.6333 27C19.5888 28.9505 22.238 30.0459 25 30.0459C27.762 30.0459 30.4112 28.9505 32.3667 27L45.8333 13.5417V35.4167C45.8333 37.0743 45.1749 38.664 44.0027 39.8361C42.8306 41.0082 41.2409 41.6667 39.5833 41.6667Z" fill="#22C55E"/>
</svg>
