<svg width="12" height="12" viewBox="0 0 12 12" fill="none" xmlns="http://www.w3.org/2000/svg">
<g clip-path="url(#clip0_43_1408)">
<path d="M3.5 11H2.5C1.673 11 1 10.327 1 9.5V8.5C1 8.224 0.776 8 0.5 8C0.224 8 0 8.224 0 8.5V9.5C0 10.8785 1.1215 12 2.5 12H3.5C3.776 12 4 11.776 4 11.5C4 11.224 3.776 11 3.5 11ZM11.5 8C11.224 8 11 8.224 11 8.5V9.5C11 10.327 10.327 11 9.5 11H8.5C8.224 11 8 11.224 8 11.5C8 11.776 8.224 12 8.5 12H9.5C10.8785 12 12 10.8785 12 9.5V8.5C12 8.224 11.776 8 11.5 8ZM9.5 0H8.5C8.224 0 8 0.224 8 0.5C8 0.776 8.224 1 8.5 1H9.5C10.327 1 11 1.673 11 2.5V3.5C11 3.776 11.224 4 11.5 4C11.776 4 12 3.776 12 3.5V2.5C12 1.1215 10.8785 0 9.5 0ZM0.5 4C0.776 4 1 3.776 1 3.5V2.5C1 1.673 1.673 1 2.5 1H3.5C3.776 1 4 0.776 4 0.5C4 0.224 3.776 0 3.5 0H2.5C1.1215 0 0 1.1215 0 2.5V3.5C0 3.776 0.224 4 0.5 4Z" fill="#433F46"/>
</g>
<defs>
<clipPath id="clip0_43_1408">
<rect width="12" height="12" fill="white"/>
</clipPath>
</defs>
</svg>
