<svg width="18" height="18" viewBox="0 0 18 18" fill="none" xmlns="http://www.w3.org/2000/svg">
<path d="M8.96573 1.49999C9.96061 1.50326 10.945 1.7038 11.8618 2.09001C12.7787 2.47622 13.6099 3.04043 14.3072 3.74999H11.9657C11.7668 3.74999 11.5761 3.82901 11.4354 3.96966C11.2947 4.11032 11.2157 4.30108 11.2157 4.49999C11.2157 4.69891 11.2947 4.88967 11.4354 5.03032C11.5761 5.17098 11.7668 5.24999 11.9657 5.24999H15.073C15.4423 5.2498 15.7964 5.103 16.0576 4.84185C16.3187 4.5807 16.4655 4.22656 16.4657 3.85724V0.749994C16.4657 0.551081 16.3867 0.360316 16.2461 0.219663C16.1054 0.079011 15.9146 -6.65409e-06 15.7157 -6.65409e-06C15.5168 -6.65409e-06 15.326 0.079011 15.1854 0.219663C15.0447 0.360316 14.9657 0.551081 14.9657 0.749994V2.30849C13.7261 1.19208 12.2002 0.442801 10.5588 0.144555C8.91744 -0.15369 7.22545 0.0108773 5.67232 0.619829C4.11919 1.22878 2.76624 2.25807 1.76499 3.59244C0.763734 4.9268 0.153709 6.51355 0.00322805 8.17499C-0.00645942 8.27944 0.00571488 8.38475 0.0389752 8.48423C0.0722356 8.58371 0.125853 8.67517 0.19641 8.75278C0.266968 8.8304 0.352919 8.89246 0.448787 8.93502C0.544654 8.97759 0.648337 8.99971 0.753228 9C0.936669 9.00233 1.11438 8.93612 1.25157 8.81433C1.38877 8.69253 1.47556 8.52392 1.49498 8.34149C1.66194 6.47456 2.52096 4.73752 3.90329 3.47162C5.28562 2.20572 7.09134 1.50246 8.96573 1.49999Z" fill="#A3A1A5"/>
<path d="M17.179 8.99999C16.9955 8.99766 16.8178 9.06386 16.6806 9.18566C16.5434 9.30746 16.4566 9.47607 16.4372 9.65849C16.3132 11.0859 15.7824 12.4478 14.9077 13.5826C14.033 14.7175 12.8512 15.5776 11.5023 16.0609C10.1535 16.5443 8.69437 16.6306 7.29799 16.3096C5.90161 15.9886 4.6266 15.2738 3.62423 14.25H5.96573C6.16464 14.25 6.35541 14.171 6.49606 14.0303C6.63671 13.8897 6.71573 13.6989 6.71573 13.5C6.71573 13.3011 6.63671 13.1103 6.49606 12.9697C6.35541 12.829 6.16464 12.75 5.96573 12.75H2.85848C2.67555 12.7499 2.4944 12.7859 2.32538 12.8558C2.15636 12.9258 2.00278 13.0284 1.87344 13.1577C1.74409 13.2871 1.6415 13.4406 1.57154 13.6096C1.50159 13.7787 1.46563 13.9598 1.46573 14.1427V17.25C1.46573 17.4489 1.54475 17.6397 1.6854 17.7803C1.82605 17.921 2.01682 18 2.21573 18C2.41464 18 2.60541 17.921 2.74606 17.7803C2.88671 17.6397 2.96573 17.4489 2.96573 17.25V15.6915C4.20535 16.8079 5.73129 17.5572 7.37265 17.8554C9.01402 18.1537 10.706 17.9891 12.2591 17.3802C13.8123 16.7712 15.1652 15.7419 16.1665 14.4076C17.1677 13.0732 17.7777 11.4864 17.9282 9.82499C17.9379 9.72055 17.9257 9.61523 17.8925 9.51576C17.8592 9.41628 17.8056 9.32482 17.735 9.2472C17.6645 9.16959 17.5785 9.10753 17.4827 9.06496C17.3868 9.0224 17.2839 9.00027 17.179 8.99999Z" fill="#A3A1A5"/>
</svg>
