<svg width="14" height="16" viewBox="0 0 14 16" fill="none" xmlns="http://www.w3.org/2000/svg">
<path d="M2.186 4.44067C1.93067 4.17533 1.93867 3.75333 2.204 3.498L5.262 0.555333C5.99867 -0.182 7.32533 -0.191333 8.08133 0.564667L11.1293 3.498C11.3947 3.75333 11.4027 4.17533 11.1473 4.44067C11.0167 4.57667 10.842 4.64533 10.6667 4.64533C10.5 4.64533 10.3333 4.58333 10.2047 4.45933L7.33333 1.69533V10.6453C7.33333 11.0133 7.03467 11.312 6.66667 11.312C6.29867 11.312 6 11.0133 6 10.6453V1.69533L3.12867 4.45933C2.864 4.71467 2.44267 4.706 2.186 4.44067ZM12.6667 5.312C12.2987 5.312 12 5.61067 12 5.97867V12.6453C12 13.748 11.1027 14.6453 10 14.6453H3.33333C2.23067 14.6453 1.33333 13.748 1.33333 12.6453V5.97867C1.33333 5.61067 1.03467 5.312 0.666667 5.312C0.298667 5.312 0 5.61067 0 5.97867V12.6453C0 14.4833 1.49533 15.9787 3.33333 15.9787H10C11.838 15.9787 13.3333 14.4833 13.3333 12.6453V5.97867C13.3333 5.61067 13.0347 5.312 12.6667 5.312Z" fill="white"/>
</svg>
