<svg width="50" height="50" viewBox="0 0 50 50" fill="none" xmlns="http://www.w3.org/2000/svg">
<path d="M46.3562 46.3104C48.6062 44.0479 50 40.9333 50 37.5C50 30.6062 44.3937 25 37.5 25C30.6083 25 25.0021 30.6083 25 37.5C25 44.3937 30.6062 50 37.5 50C40.9583 50 44.0937 48.5854 46.3562 46.3104ZM45.8333 37.5C45.8333 39.0417 45.3833 40.4667 44.6521 41.7062L33.2937 30.3458C34.5333 29.6146 35.9583 29.1646 37.5 29.1646C42.0958 29.1646 45.8333 32.9042 45.8333 37.5ZM29.1667 37.5C29.1667 35.9583 29.6167 34.5333 30.3479 33.2937L41.7062 44.6542C40.4667 45.3854 39.0417 45.8354 37.5 45.8354C32.9042 45.8354 29.1667 42.0958 29.1667 37.5ZM18.75 25C25.6437 25 31.25 19.3937 31.25 12.5C31.25 5.60625 25.6437 0 18.75 0C11.8562 0 6.25 5.60625 6.25 12.5C6.25 19.3937 11.8562 25 18.75 25ZM18.75 4.16667C23.3458 4.16667 27.0833 7.90417 27.0833 12.5C27.0833 17.0958 23.3458 20.8333 18.75 20.8333C14.1542 20.8333 10.4167 17.0958 10.4167 12.5C10.4167 7.90417 14.1542 4.16667 18.75 4.16667ZM22.9 31.6396C22.7583 32.7792 21.7271 33.5937 20.575 33.4479C19.9771 33.3729 19.3687 33.3354 18.75 33.3354C10.7104 33.3354 4.16667 39.8771 4.16667 47.9187C4.16667 49.0687 3.23542 50.0021 2.08333 50.0021C0.93125 50.0021 0 49.0687 0 47.9187C0 37.5812 8.41042 29.1687 18.75 29.1687C19.5354 29.1687 20.3229 29.2167 21.0917 29.3146C22.2354 29.4583 23.0437 30.4958 22.9 31.6396Z" fill="#EF4444"/>
</svg>
