<svg width="15" height="18" viewBox="0 0 15 18" fill="none" xmlns="http://www.w3.org/2000/svg">
<path d="M4.39986 7.12493C4.39986 7.53818 4.49586 7.92968 4.66686 8.27768C4.29936 8.74868 4.07061 9.33293 4.03986 9.96968C3.33411 9.22868 2.89986 8.22668 2.89986 7.12568C2.89986 4.56743 5.24136 2.54543 7.89411 3.08993C9.45561 3.41093 10.7209 4.66868 11.0539 6.22793C11.1544 6.69893 11.1731 7.16018 11.1221 7.60118C11.0786 7.97468 10.7509 8.25068 10.3744 8.25068H10.3406C9.89661 8.25068 9.58461 7.85543 9.63336 7.41443C9.66636 7.11818 9.64911 6.80693 9.57336 6.48968C9.34986 5.54993 8.58336 4.78868 7.64211 4.57193C5.92761 4.17818 4.39911 5.47718 4.39911 7.12568L4.39986 7.12493ZM1.48236 6.15368C1.68786 4.95893 2.27211 3.86993 3.17811 3.02018C4.32486 1.94543 5.82636 1.41443 7.40061 1.51193C10.3654 1.70393 12.6836 4.30118 12.6491 7.41068C12.6349 8.71268 11.5444 9.74918 10.2431 9.74918H8.43861C8.25561 9.12743 7.68711 8.66993 7.00611 8.66993C6.17736 8.66993 5.50611 9.34118 5.50611 10.1699C5.50611 10.9987 6.17736 11.6699 7.00611 11.6699C7.40961 11.6699 7.77486 11.5087 8.04411 11.2492H10.2431C12.3574 11.2492 14.1191 9.56543 14.1491 7.45193C14.2046 3.53618 11.2631 0.258682 7.49736 0.0156823C5.49936 -0.114068 3.60411 0.564682 2.15286 1.92668C1.02861 2.98043 0.280861 4.37543 0.011611 5.87618C-0.070139 6.33218 0.290611 6.75068 0.753361 6.75068C1.10736 6.75068 1.42311 6.50393 1.48236 6.15443V6.15368ZM7.02486 12.7499C4.25361 12.7499 1.85586 14.4689 1.05861 17.0264C0.934861 17.4217 1.15611 17.8424 1.55136 17.9662C1.94586 18.0854 2.36661 17.8679 2.49036 17.4734C3.08211 15.5759 4.94586 14.2499 7.02411 14.2499C9.10236 14.2499 10.9669 15.5759 11.5579 17.4734C11.6584 17.7944 11.9539 17.9999 12.2741 17.9999C12.3484 17.9999 12.4226 17.9887 12.4976 17.9662C12.8929 17.8424 13.1134 17.4217 12.9904 17.0264C12.1931 14.4689 9.79536 12.7499 7.02411 12.7499H7.02486Z" fill="#A3A1A5"/>
</svg>
